# xmcd
#
# Track frame offsets: 
#        150
#        16730
#        46426
#        63381
#        95694
#        111410
#        134011
#        153941
#        175874
#
# Disc length: 3100 seconds
#
# Revision: 0
# Processed by: cddbd v1.5.2PL0 Copyright (c) Steve Scherf et al.
# Submitted via: ExactAudioCopyFreeDBPlugin 1.0
#
DISCID=770c1a09
DTITLE=Danso Key - Golpe
DYEAR=2013
DGENRE=
TTITLE0=Polyamorous God
TTITLE1=J'enlace
TTITLE2=Turn-Over-Turn
TTITLE3=Tiny Crimes
TTITLE4=Lady in Me
TTITLE5=Flowers
TTITLE6=Like a Beggar
TTITLE7=Clean
TTITLE8=You Look Like Rain
EXTD=
EXTT0=
EXTT1=
EXTT2=
EXTT3=
EXTT4=
EXTT5=
EXTT6=
EXTT7=
EXTT8=
PLAYORDER=
